<?xml version="1.0" encoding="utf-8"?>
<!-- Generator: Adobe Illustrator 19.0.0, SVG Export Plug-In . SVG Version: 6.00 Build 0)  -->
<svg version="1.1" id="layer" xmlns="http://www.w3.org/2000/svg" xmlns:xlink="http://www.w3.org/1999/xlink" x="0px" y="0px"
	 viewBox="-153 -46 652 652" style="enable-background:new -153 -46 652 652;" xml:space="preserve">
<style type="text/css">
	.st0{fill:#003299;}
	.st1{fill:#FFF315;}
</style>
<g id="Eurosystem">
	<g id="EN_2_">
		<g id="EN_3_">
			<g>
				<path class="st0" d="M-114,329.7h-17.6v-23.9h17.3v4.4h-11.4v5.2h11v4.4h-11v5.8h11.8L-114,329.7L-114,329.7z"/>
				<path class="st0" d="M-81.3,306.1v13.6c0,7.7-5.5,10.7-11.8,10.7c-6.9,0-11.8-3.3-11.8-10.7v-13.6h5.8v13.6
					c0,3.3,2.5,5.5,5.8,5.5s5.8-1.4,5.8-5.8v-13.2H-81.3z"/>
				<path class="st0" d="M-60.7,306.1c4.7,0,7.7,3.3,7.7,6.9c0,2.5-1.4,4.4-4.1,5.8c2.5,1.1,3.3,4.1,6.6,11H-57
					c-2.5-5.2-3.3-9.6-6.6-9.6h-1.9v9.6h-5.8V306h10.7V306.1z M-65.5,315.7h3.3c1.4,0,3.3-0.8,3.3-2.5c0-1.8-1.1-2.5-3.3-2.5h-3v5.2
					h-0.3V315.7z"/>
				<path class="st0" d="M-30.9,330.1c-8.8,0-13.6-6.3-13.6-12.1c0-5.8,4.7-12.1,13.6-12.1s13.6,6.6,13.6,12.1
					C-17.2,324.2-22.4,330.1-30.9,330.1z M-30.9,310.5c-4.4,0-7.7,3-7.7,7.4s3,7.4,7.7,7.4c4.4,0,7.4-3,7.4-7.4
					S-26.5,310.5-30.9,310.5z"/>
				<path class="st0" d="M2.6,306.1c5.5,0,7.7,3.6,7.7,6.9c0,3.3-2.2,7.4-7.7,7.4h-4.7v9.6H-8v-23.9H2.6z M-2.2,315.7h2.5
					c2.5,0,3.6-1.1,3.6-3c0-1.9-1.1-2.5-4.4-2.5h-2.2v5.5H-2.2z"/>
				<path class="st0" d="M36.8,329.7H19.1v-23.9h17.3v4.4H25.1v5.2h11v4.4h-11v5.8h11.7V329.7L36.8,329.7z"/>
				<path class="st0" d="M70.6,329.7h-6.3l-1.9-4.7H51.8l-1.9,4.7h-6.3l9.6-23.9h6.9L70.6,329.7z M56.6,311.6l-3.3,9.1h7.4
					L56.6,311.6z"/>
				<path class="st0" d="M102.3,329.7h-5.2l-13.2-15.1v15.1H78v-23.9h5.5l12.9,14.8v-14.8h5.8V329.7z"/>
				<path class="st0" d="M149,327.8c-3.3,1.9-5.8,2.2-9.1,2.2c-9.1,0-14-5.8-14-12.1c0-6.3,5.2-12.1,14.3-12.1
					c3.3,0,6.3,0.8,8.5,2.2v5.2c-2.5-1.4-5.2-2.5-8-2.5c-5.2,0-8.5,3-8.5,7.4s3.6,7.4,8.5,7.4c3,0,5.2-1.1,8.5-2.5L149,327.8
					L149,327.8z"/>
				<path class="st0" d="M175.9,329.7h-17.6v-23.9h17.3v4.4h-11v5.2h11v4.4h-11v5.8h11.8v4.1H175.9z"/>
				<path class="st0" d="M209.3,329.7h-5.2l-13.2-15.1v15.1h-5.8v-23.9h5.5l12.9,14.8v-14.8h5.8V329.7L209.3,329.7z"/>
				<path class="st0" d="M241,310.2h-8.5v19.5h-5.8v-19.5h-8.5v-4.4h23.1v4.4H241z"/>
				<path class="st0" d="M259.8,306.1c4.7,0,7.7,3.3,7.7,6.9c0,2.5-1.4,4.4-4.1,5.8c2.5,1.1,3.3,4.1,6.6,11h-6.6
					c-2.5-5.2-3.3-9.6-6.6-9.6h-1.9v9.6h-5.8V306h10.7V306.1z M255.4,315.7h3.3c1.4,0,3.3-0.8,3.3-2.5c0-1.8-1.1-2.5-3.3-2.5h-3v5.2
					h-0.3V315.7z"/>
				<path class="st0" d="M302.1,329.7h-6.3L294,325h-10.7l-1.9,4.7h-6.3l9.6-23.9h6.9L302.1,329.7z M288.1,311.6l-3.3,9.1h7.4
					L288.1,311.6z"/>
				<path class="st0" d="M327.8,329.7h-18.1v-23.9h5.8v19.5h12.1L327.8,329.7L327.8,329.7z"/>
				<path class="st0" d="M360.5,306.1c5.5,0,7.7,3.3,7.7,5.8c0,1.9-1.1,3.6-3.3,4.7c3.3,0.8,5.2,3.3,5.2,6.3c0,2.5-1.4,6.9-8.5,6.9
					h-11.8V306h10.7V306.1z M356.1,315.3h3c2.2,0,3-1.4,3-2.5c0-1.1-0.8-2.5-3-2.5h-3V315.3z M356.1,325.3h3.3c3.3,0,4.4-0.8,4.4-3
					c0-1.9-1.4-2.5-3.6-2.5h-4.1V325.3L356.1,325.3z"/>
				<path class="st0" d="M403.6,329.7h-6.3l-1.9-4.7h-10.7l-1.9,4.7h-6.3l9.6-23.9h6.9L403.6,329.7z M390,311.6l-3.3,9.1h7.4
					L390,311.6z"/>
				<path class="st0" d="M435.3,329.7h-5.2l-13.2-15.1v15.1H411v-23.9h5.5l12.9,14.8v-14.8h5.8V329.7z"/>
				<path class="st0" d="M457.7,317.2l10.7,12.5H461l-9.6-11v11h-5.8v-23.9h5.8v11l0,0l7.4-10.7h6.6L457.7,317.2z"/>
			</g>
			<g>
				<path class="st0" d="M57.1,383.1H46.7v7.4h9.6v3h-9.6v7.4H57v3H43v-24h13.7v3.3H57.1z"/>
				<path class="st0" d="M85.7,394.4c0,5.8-3.3,9.6-10.7,9.6c-5.2,0-9.9-3-9.9-9.1v-14.8h3.3v14c0,2.5,0.3,3.6,1.4,4.7
					c1.4,1.4,3,2.2,5.2,2.2c2.5,0,4.4-0.8,5.5-1.9c1.1-1.1,1.4-3,1.4-5.2v-14h3.3v14.3h0.4V394.4z"/>
				<path class="st0" d="M101.2,380.1c4.7,0,7.7,2.5,7.7,6.6c0,3-1.4,4.7-4.1,5.8c2.2,1.4,3.3,3.6,5.2,6.6c1.1,1.4,1.4,2.5,3.3,4.7
					h-4.1l-3.3-4.7c-3.3-4.7-4.4-5.5-6.3-5.5h-1.4v10.3h-3.3V380L101.2,380.1L101.2,380.1z M98.6,390.4h2.2c3.6,0,4.7-1.9,4.7-4.1
					c0-2.2-1.4-3.6-4.7-3.6h-2.2V390.4z"/>
				<path class="st0" d="M131.7,379.8c7.7,0,12.9,5.5,12.9,12.1c0,6.3-4.7,12.1-12.9,12.1c-7.7,0-12.9-5.8-12.9-12.1
					C119.2,385.3,124,379.8,131.7,379.8z M131.7,401c5.5,0,9.1-4.1,9.1-9.1s-4.1-9.1-9.1-9.1c-5.1,0-9.1,3.6-9.1,9.1
					C122.5,397,126.6,401,131.7,401z"/>
				<path class="st0" d="M164.9,385.3c-1.9-1.9-4.1-2.5-5.5-2.5c-2.2,0-3.6,1.1-3.6,3c0,4.4,10.3,4.4,10.3,12.1c0,3.6-3,6.6-6.6,6.6
					c-2.5,0-4.7-0.8-6.6-2.2v-4.4c1.9,2.2,4.1,3.3,6.3,3.3c2.5,0,4.1-1.9,4.1-3c0-4.7-10.3-5.5-10.3-12.1c0-4.1,3-6.3,7.4-6.3
					c1.9,0,3.6,0.8,5.2,1.9v3.6H164.9z"/>
				<path class="st0" d="M188.8,380.1h4.1l-8.8,11.4V404h-3.3v-12.5l-8.8-11h4.1l6.3,8L188.8,380.1z"/>
				<path class="st0" d="M210.8,385.3c-2.2-1.9-4.1-2.5-5.5-2.5c-2.2,0-3.6,1.1-3.6,3c0,4.4,10.3,4.4,10.3,12.1c0,3.6-3,6.6-6.6,6.6
					c-2.5,0-4.7-0.8-6.6-2.2v-4.4c1.9,2.2,4.1,3.3,6.3,3.3c2.5,0,4.1-1.9,4.1-3c0-4.7-10.3-5.5-10.3-12.1c0-4.1,3-6.3,7.4-6.3
					c1.9,0,3.6,0.8,5.2,1.9v3.6H210.8z"/>
				<path class="st0" d="M238.1,383.1h-8v20.6h-3.3v-20.6h-8v-3h19.8v3H238.1z"/>
				<path class="st0" d="M259.3,383.1h-9.9v7.4h9.6v3h-9.6v7.4h10.3v3h-14v-24h13.6v3.3H259.3z"/>
				<path class="st0" d="M290.3,404H287v-18.4l0,0l-7.4,9.1h-0.8l-7.4-9.1l0,0V404h-3.3v-23.9h3.3l7.7,9.9l8-9.9h3.3V404H290.3z"/>
			</g>
		</g>
	</g>
</g>
<g id="Elements">
	<g>
		<path class="st0" d="M95,191.4h19.8c0,0.8,0,1.4,0,2.5c0,30.2,24.3,54.5,54.5,54.5s54.5-24.3,54.5-54.5c0-0.8,0-1.4,0-2.5h19.8
			v76.5H95V191.4L95,191.4z"/>
		<path class="st0" d="M119.6,193.9c0-27.2,22-49.3,49.3-49.3s49.3,22,49.3,49.3s-22,49.3-49.3,49.3
			C142.1,243.2,119.6,221.1,119.6,193.9L119.6,193.9z"/>
		<polygon class="st1" points="174,152.7 171.1,154.9 172.2,158.2 169.3,156.4 166.3,158.2 167.4,154.9 164.4,152.7 168.2,152.7 
			169.3,149.4 170.4,152.7 		"/>
		<polygon class="st1" points="174,231.8 171.1,234 172.2,237.3 169.3,235.5 166.3,237.3 167.4,234 164.4,231.8 168.2,231.8 
			169.3,228.5 170.4,231.8 		"/>
		<polygon class="st1" points="193.5,158.2 190.6,160.4 191.7,163.7 189.1,161.5 186.2,163.7 187.3,160.4 184.4,158.2 187.7,158.2 
			189.1,154.6 190.2,158.2 		"/>
		<polygon class="st1" points="208.2,172.5 205.3,174.8 206.4,178.2 203.5,175.9 200.5,178.2 201.6,174.8 198.7,172.5 202.4,172.5 
			203.5,169.2 204.6,172.5 		"/>
		<polygon class="st1" points="213.4,192.5 210.4,194.7 211.6,198 208.6,195.8 205.7,198 206.8,194.7 203.8,192.5 207.5,192.5 
			208.6,189.2 209.7,192.5 		"/>
		<polygon class="st1" points="208.2,212.3 205.3,214.2 206.4,217.8 203.5,215.6 200.5,217.8 201.6,214.2 198.7,212.3 202.4,212.3 
			203.5,208.7 204.6,212.3 		"/>
		<polygon class="st1" points="193.5,226.7 190.6,228.9 191.7,232.2 189.1,230 186.2,232.2 187.3,228.9 184.4,226.7 187.7,226.7 
			189.1,223.3 190.2,226.7 		"/>
		<polygon class="st1" points="154.2,226.7 151.2,228.9 152.3,232.2 149.3,230 146.5,232.2 147.6,228.9 144.6,226.7 148.2,226.7 
			149.3,223.3 150.4,226.7 		"/>
		<polygon class="st1" points="134.3,192.5 131.4,194.7 132.5,198 129.5,195.8 126.6,198 127.7,194.7 125.1,192.5 128.4,192.5 
			129.5,189.2 130.6,192.5 		"/>
		<polygon class="st1" points="154.2,158.2 151.2,160.4 152.3,163.7 149.3,161.5 146.5,163.7 147.6,160.4 144.6,158.2 148.2,158.2 
			149.3,154.6 150.4,158.2 		"/>
		<polygon class="st1" points="139.4,172.5 136.9,174.8 138,178.2 135,175.9 132.1,178.2 133.2,174.8 130.3,172.5 133.9,172.5 
			135,169.2 136.1,172.5 		"/>
		<polygon class="st1" points="139.4,212.3 136.9,214.2 138,217.8 135,215.6 132.1,217.8 133.2,214.2 130.3,212.3 133.9,212.3 
			135,208.7 136.1,212.3 		"/>
		<path class="st1" d="M139.4,187.3h5.8c3-11.8,13.6-20.3,26.5-20.3c7.4,0,14.3,3,19.2,8l-1.9,4.7c-4.1-4.7-10.3-8-17.3-8
			c-10.3,0-18.7,6.6-21.7,15.9h35.7l-1.9,4.4h-34.9c0,0.8,0,1.4,0,2.2c0,0.8,0,1.4,0,2.2h32.7l-1.9,4.4h-30.2
			c3,9.1,11.4,15.9,21.7,15.9c6.9,0,13.2-3.3,17.3-8v6.3c-4.7,4.1-10.7,6.3-17.3,6.3c-12.5,0-23.1-8.8-26.5-20.3h-7.7l1.9-4.4h5.2
			c0-0.8,0-1.4,0-2.2s0-1.4,0-2.2h-6.9L139.4,187.3L139.4,187.3z"/>
		<rect x="82.8" y="352.1" class="st0" width="173" height="2.5"/>
	</g>
</g>
</svg>
